<svg width="24" height="19" viewBox="0 0 24 19" fill="none" xmlns="http://www.w3.org/2000/svg">
<path d="M21.8906 0H2.10938C1.78467 0 1.48069 0.0798281 1.20567 0.211406L11.9531 10.9589L14.362 8.64384C14.362 8.64384 14.3622 8.64361 14.3622 8.64352C14.3623 8.64342 14.3625 8.64333 14.3625 8.64333L22.7947 0.211594C22.5196 0.0799219 22.2154 0 21.8906 0Z" fill="#E8E8E8"/>
<path d="M22.9351 1L15 8.93472L22.9349 16.8696C23.0664 16.5946 23.1463 16.2906 23.1463 15.9659V1.90338C23.1463 1.57886 23.0666 1.27492 22.9351 1Z" fill="#E8E8E8"/>
<path d="M0.211406 1.20566C0.0798281 1.48067 0 1.78466 0 2.10936V16.1719C0 16.4964 0.0797344 16.8004 0.211219 17.0753L8.14636 9.14061L0.211406 1.20566Z" fill="#E8E8E8"/>
<path d="M14.8595 10.135L12.4503 12.4503C12.3129 12.5876 12.133 12.6563 11.9532 12.6563C11.7733 12.6563 11.5934 12.5876 11.4561 12.4503L9.14063 10.1349L1.20535 18.0697C1.48041 18.2013 1.78458 18.2812 2.10938 18.2812H21.8906C22.2153 18.2812 22.5193 18.2014 22.7943 18.0698L14.8595 10.135Z" fill="#E8E8E8"/>
</svg>
