<svg width="70" height="70" viewBox="0 0 70 70" fill="none" xmlns="http://www.w3.org/2000/svg">
<circle cx="35" cy="35" r="35" fill="#58BEBF" fill-opacity="0.2"/>
<path d="M51.3555 31H43.9716C41.7781 31 40 32.7781 40 34.9716V46.1648C40 48.3583 41.7781 50.1364 43.9716 50.1364H52.2579L53.6566 33.5027C53.7699 32.1558 52.7071 31 51.3555 31Z" fill="#58BEBF"/>
<path d="M35.935 20.0054H34.0918L33.3796 28.8327C33.1773 31.3401 31.0833 33.2719 28.5677 33.2719H27.1838V47.5808H31.8753C31.8753 47.615 31.8753 47.6491 31.8752 47.6829C31.8738 48.9593 32.908 49.9945 34.1844 49.9945H39.2349C38.3189 48.9252 37.7637 47.538 37.7637 46.0229V34.8297C37.7637 32.9734 38.5963 31.3087 39.9066 30.1864V23.9769C39.9066 21.7835 38.1284 20.0054 35.935 20.0054V20.0054Z" fill="#58BEBF"/>
<path d="M17 31.8374H25.0409V49.0155H17V31.8374Z" fill="#58BEBF"/>
</svg>
